{
	"asset":{
		"generator":"Khronos glTF Blender I/O v3.6.28",
		"version":"2.0"
	},
	"extensionsUsed":[
		"KHR_materials_specular",
		"KHR_materials_ior"
	],
	"ironman":0,
	"scenes":[
		{
			"name":"Scene",
			"nodes":[
				0
			]
		}
	],
	"nodes":[
		{
			"mesh":0,
			"name":"iron man",
			"rotation":[
				0.7071068286895752,
				0,
				0,
				0.7071068286895752
			]
		}
	],
	"materials":[
		{
			"doubleSided":true,
			"extensions":{
				"KHR_materials_specular":{
					"specularColorFactor":[
						0,
						0,
						0
					]
				},
				"KHR_materials_ior":{
					"ior":1.4500000476837158
				}
			},
			"name":"Model001_Material001",
			"pbrMetallicRoughness":{
				"baseColorTexture":{
					"index":0
				},
				"metallicFactor":0
			}
		},
		{
			"doubleSided":true,
			"extensions":{
				"KHR_materials_specular":{
					"specularColorFactor":[
						0,
						0,
						0
					]
				},
				"KHR_materials_ior":{
					"ior":1.4500000476837158
				}
			},
			"name":"Model001_Material002",
			"pbrMetallicRoughness":{
				"baseColorTexture":{
					"index":1
				},
				"metallicFactor":0
			}
		},
		{
			"doubleSided":true,
			"extensions":{
				"KHR_materials_specular":{
					"specularColorFactor":[
						0,
						0,
						0
					]
				},
				"KHR_materials_ior":{
					"ior":1.4500000476837158
				}
			},
			"name":"Model001_Material003",
			"pbrMetallicRoughness":{
				"baseColorTexture":{
					"index":2
				},
				"metallicFactor":0
			}
		}
	],
	"meshes":[
		{
			"name":"iron man",
			"primitives":[
				{
					"attributes":{
						"POSITION":0,
						"NORMAL":1,
						"TEXCOORD_0":2
					},
					"indices":3,
					"material":0
				},
				{
					"attributes":{
						"POSITION":4,
						"NORMAL":5,
						"TEXCOORD_0":6
					},
					"indices":7,
					"material":1
				},
				{
					"attributes":{
						"POSITION":8,
						"NORMAL":9,
						"TEXCOORD_0":10
					},
					"indices":11,
					"material":2
				}
			]
		}
	],
	"textures":[
		{
			"sampler":0,
			"source":0
		},
		{
			"sampler":0,
			"source":0
		},
		{
			"sampler":0,
			"source":0
		}
	],
	"images":[
		{
			"bufferView":4,
			"mimeType":"image/png",
			"name":"IronMan_Movie_Diff"
		}
	],
	"accessors":[
		{
			"bufferView":0,
			"componentType":5126,
			"count":10349,
			"max":[
				0.09325499832630157,
				0.40985599160194397,
				-0.00549029977992177
			],
			"min":[
				-0.29328399896621704,
				-0.42916399240493774,
				-0.9569960236549377
			],
			"type":"VEC3"
		},
		{
			"bufferView":1,
			"componentType":5126,
			"count":10349,
			"type":"VEC3"
		},
		{
			"bufferView":2,
			"componentType":5126,
			"count":10349,
			"type":"VEC2"
		},
		{
			"bufferView":3,
			"componentType":5123,
			"count":28815,
			"type":"SCALAR"
		},
		{
			"bufferView":5,
			"componentType":5126,
			"count":122,
			"max":[
				0.02408057078719139,
				0.4239619970321655,
				-0.47063198685646057
			],
			"min":[
				-0.03474682942032814,
				0.3969700038433075,
				-0.5109779834747314
			],
			"type":"VEC3"
		},
		{
			"bufferView":6,
			"componentType":5126,
			"count":122,
			"type":"VEC3"
		},
		{
			"bufferView":7,
			"componentType":5126,
			"count":122,
			"type":"VEC2"
		},
		{
			"bufferView":8,
			"componentType":5123,
			"count":258,
			"type":"SCALAR"
		},
		{
			"bufferView":9,
			"componentType":5126,
			"count":1707,
			"max":[
				0.07116837799549103,
				0.42916399240493774,
				-0.07600399851799011
			],
			"min":[
				-0.29328399896621704,
				-0.07408402115106583,
				-0.9202579855918884
			],
			"type":"VEC3"
		},
		{
			"bufferView":10,
			"componentType":5126,
			"count":1707,
			"type":"VEC3"
		},
		{
			"bufferView":11,
			"componentType":5126,
			"count":1707,
			"type":"VEC2"
		},
		{
			"bufferView":12,
			"componentType":5123,
			"count":3651,
			"type":"SCALAR"
		}
	],
	"bufferViews":[
		{
			"buffer":0,
			"byteLength":124188,
			"byteOffset":0,
			"target":34962
		},
		{
			"buffer":0,
			"byteLength":124188,
			"byteOffset":124188,
			"target":34962
		},
		{
			"buffer":0,
			"byteLength":82792,
			"byteOffset":248376,
			"target":34962
		},
		{
			"buffer":0,
			"byteLength":57630,
			"byteOffset":331168,
			"target":34963
		},
		{
			"buffer":0,
			"byteLength":723581,
			"byteOffset":388800
		},
		{
			"buffer":0,
			"byteLength":1464,
			"byteOffset":1112384,
			"target":34962
		},
		{
			"buffer":0,
			"byteLength":1464,
			"byteOffset":1113848,
			"target":34962
		},
		{
			"buffer":0,
			"byteLength":976,
			"byteOffset":1115312,
			"target":34962
		},
		{
			"buffer":0,
			"byteLength":516,
			"byteOffset":1116288,
			"target":34963
		},
		{
			"buffer":0,
			"byteLength":20484,
			"byteOffset":1116804,
			"target":34962
		},
		{
			"buffer":0,
			"byteLength":20484,
			"byteOffset":1137288,
			"target":34962
		},
		{
			"buffer":0,
			"byteLength":13656,
			"byteOffset":1157772,
			"target":34962
		},
		{
			"buffer":0,
			"byteLength":7302,
			"byteOffset":1171428,
			"target":34963
		}
	],
	"samplers":[
		{
			"magFilter":9729,
			"minFilter":9987
		}
	],
	"buffers":[
		{
			"byteLength":1178732,
			"uri":"data:application/octet-stream;base64,"
		}
	]
}
